<svg xmlns="http://www.w3.org/2000/svg" width="128" height="128" viewBox="0 0 128 128">
  <defs>
    <style>
      .cls-1 {
        fill: #8da5f3;
        fill-rule: evenodd;
      }
    </style>
  </defs>
  <path id="Şekil_1" data-name="Şekil 1" class="cls-1" d="M0,0H128V128H0V0ZM5,5V122H123V5H5Zm7,45c8.536-.33,15.078.316,20,3,1.9,10.389-4.574,12.265-13,15V79H12V50Zm26,0h7V79H38V50Zm15,0h7l2,9h1l1-1,1-8h6c-0.457,4.971-5.637,12.671-5,15,1.2,4.37,4.4,6.836,5,14H64l-2-9H61l-1,1-1,8H53c0.465-5.023,5.632-12.6,5-15C56.847,59.618,53.628,56.955,53,50Zm25,0H94v6H85v3h7v5l-7,1v8h9v6H78V50Zm24,0h7V73h8v6H102V50ZM19,56v6h1c3.751-1.875,4.463-1.575,6-6H19Z"/>
</svg>
