<svg xmlns="http://www.w3.org/2000/svg" width="32" height="32" viewBox="0 0 512 512">
  <defs>
    <style>
      .cls-1 {
        fill: #8da5f3;
        stroke: #000;
        stroke-width: 1px;
        fill-rule: evenodd;
      }
    </style>
  </defs>
  <path id="Şekil_1" data-name="Şekil 1" class="cls-1" d="M246,43c58.781-1.7,102.2,64.244,59,104,2.911,13.8,55.294,105.4,65,115l37-20-24,87h-1l-85-24,1-2,35-19L268,170c-49.866,3.32-96.6-39.524-70-92C208.4,57.491,224.254,52.74,246,43ZM211,183q12.5,43.5,25,87l-38-20L134,365c50.8,42.071-18.631,134.687-83,95C-5.459,425.19,21.959,336.931,97,342l65-113q-0.5-1-1-2l-35-19Zm24,244v42l-64-65,63-62h1v42H367c17.046-66.176,113.449-50.577,124,17,11.543,73.93-106.605,92.012-124,26H235Z"/>
</svg>
