<svg xmlns="http://www.w3.org/2000/svg" width="32" height="32" viewBox="0 0 512 512">
  <defs>
    <style>
      .cls-1 {
        fill: #8da5f3;
        fill-rule: evenodd;
      }
    </style>
  </defs>
  <path id="Şekil_1" data-name="Şekil 1" class="cls-1" d="M404,62h3l31,44v1l-49,6L360,69l1-1ZM304,76c4.551-.033,5.895-0.132,8,2l30,41-1,2c-11.875.608-40.6,10.058-48,4L263,82ZM212,89c7.219,2.8,29.388,36.75,33,45l-49,6L167,96h2ZM442,206V360c0,28.3,1.945,56.12-10,72-14.967,19.9-44.7,18-80,18H176c-30.176,0-64,3.074-81-10-22.059-16.962-18-54.823-18-94V157l-7-48c11.932-.617,41.432-10.368,49-4l30,43-68,9v1l68,1-23,48,49-1,23-48h49l-24,48h49l25-48,47,1-23,48,48-1,25-48h48l-24,48h24Z"/>
</svg>
